<svg width="20" height="20" viewBox="0 0 20 20" fill="none" xmlns="http://www.w3.org/2000/svg">
<path d="M7.60078 2.79999H4.40078C3.97643 2.79999 3.56947 2.96856 3.26941 3.26862C2.96935 3.56868 2.80078 3.97564 2.80078 4.39999V7.59999C2.80078 8.02433 2.96935 8.4313 3.26941 8.73136C3.56947 9.03142 3.97643 9.19999 4.40078 9.19999H7.60078C8.02513 9.19999 8.43209 9.03142 8.73215 8.73136C9.03221 8.4313 9.20078 8.02433 9.20078 7.59999V4.39999C9.20078 3.97564 9.03221 3.56868 8.73215 3.26862C8.43209 2.96856 8.02513 2.79999 7.60078 2.79999ZM4.40078 7.59999V4.39999H7.60078V7.59999H4.40078Z" fill="#36BA5F"/>
<path d="M4.40078 7.59999V4.39999H7.60078V7.59999H4.40078Z" fill="#36BA5F"/>
<path d="M15.6008 2.79999H12.4008C11.9764 2.79999 11.5695 2.96856 11.2694 3.26862C10.9694 3.56868 10.8008 3.97564 10.8008 4.39999V7.59999C10.8008 8.02433 10.9694 8.4313 11.2694 8.73136C11.5695 9.03142 11.9764 9.19999 12.4008 9.19999H15.6008C16.0251 9.19999 16.4321 9.03142 16.7322 8.73136C17.0322 8.4313 17.2008 8.02433 17.2008 7.59999V4.39999C17.2008 3.97564 17.0322 3.56868 16.7322 3.26862C16.4321 2.96856 16.0251 2.79999 15.6008 2.79999ZM12.4008 7.59999V4.39999H15.6008V7.59999H12.4008Z" fill="#36BA5F"/>
<path d="M12.4008 7.59999V4.39999H15.6008V7.59999H12.4008Z" fill="#36BA5F"/>
<path d="M7.60078 10.8H4.40078C3.97643 10.8 3.56947 10.9686 3.26941 11.2686C2.96935 11.5687 2.80078 11.9756 2.80078 12.4V15.6C2.80078 16.0243 2.96935 16.4313 3.26941 16.7314C3.56947 17.0314 3.97643 17.2 4.40078 17.2H7.60078C8.02513 17.2 8.43209 17.0314 8.73215 16.7314C9.03221 16.4313 9.20078 16.0243 9.20078 15.6V12.4C9.20078 11.9756 9.03221 11.5687 8.73215 11.2686C8.43209 10.9686 8.02513 10.8 7.60078 10.8ZM4.40078 15.6V12.4H7.60078V15.6H4.40078Z" fill="#36BA5F"/>
<path d="M4.40078 15.6V12.4H7.60078V15.6H4.40078Z" fill="#36BA5F"/>
<path d="M15.6008 10.8H12.4008C11.9764 10.8 11.5695 10.9686 11.2694 11.2686C10.9694 11.5687 10.8008 11.9756 10.8008 12.4V15.6C10.8008 16.0243 10.9694 16.4313 11.2694 16.7314C11.5695 17.0314 11.9764 17.2 12.4008 17.2H15.6008C16.0251 17.2 16.4321 17.0314 16.7322 16.7314C17.0322 16.4313 17.2008 16.0243 17.2008 15.6V12.4C17.2008 11.9756 17.0322 11.5687 16.7322 11.2686C16.4321 10.9686 16.0251 10.8 15.6008 10.8ZM12.4008 15.6V12.4H15.6008V15.6H12.4008Z" fill="#36BA5F"/>
<path d="M12.4008 15.6V12.4H15.6008V15.6H12.4008Z" fill="#36BA5F"/>
</svg>
