<svg width="16" height="16" viewBox="0 0 16 16" fill="none" xmlns="http://www.w3.org/2000/svg">
<path d="M14.0664 1.53334L1.52977 5.71201C1.46488 5.73351 1.40817 5.77445 1.36733 5.82927C1.3265 5.88409 1.3035 5.95015 1.30146 6.01848C1.29942 6.08681 1.31844 6.15411 1.35594 6.21127C1.39344 6.26843 1.44761 6.31267 1.5111 6.33801L7.3331 8.66667L10.2831 14.5667C10.3131 14.6268 10.3606 14.6764 10.4193 14.709C10.478 14.7416 10.5452 14.7558 10.612 14.7496C10.6789 14.7434 10.7424 14.7171 10.7941 14.6743C10.8458 14.6314 10.8833 14.5739 10.9018 14.5093L14.4931 1.94067C14.5097 1.88228 14.5101 1.82046 14.4942 1.76187C14.4782 1.70329 14.4466 1.65016 14.4027 1.60824C14.3588 1.56631 14.3043 1.53718 14.245 1.52398C14.1857 1.51078 14.124 1.51402 14.0664 1.53334Z" fill="#949494"/>
</svg>
