<svg width="24" height="24" viewBox="0 0 24 24" fill="none" xmlns="http://www.w3.org/2000/svg">
<path d="M11.9997 3.66667C10.2431 3.66658 8.55739 4.3598 7.30904 5.59566C6.0607 6.83152 5.35057 8.51014 5.33301 10.2667C5.33301 14.8333 11.208 19.9167 11.458 20.1333C11.609 20.2624 11.801 20.3334 11.9997 20.3334C12.1983 20.3334 12.3904 20.2624 12.5413 20.1333C12.833 19.9167 18.6663 14.8333 18.6663 10.2667C18.6488 8.51014 17.9386 6.83152 16.6903 5.59566C15.442 4.3598 13.7563 3.66658 11.9997 3.66667ZM11.9997 18.375C10.608 17.05 6.99967 13.375 6.99967 10.2667C6.99967 8.94059 7.52646 7.66882 8.46414 6.73114C9.40182 5.79346 10.6736 5.26667 11.9997 5.26667C13.3258 5.26667 14.5975 5.79346 15.5352 6.73114C16.4729 7.66882 16.9997 8.94059 16.9997 10.2667C16.9997 13.35 13.3913 17.05 11.9997 18.375Z" fill="#1A1A1A"/>
<path d="M12 8C11.6044 8 11.2178 8.1173 10.8889 8.33706C10.56 8.55682 10.3036 8.86918 10.1522 9.23463C10.0009 9.60009 9.96126 10.0022 10.0384 10.3902C10.1156 10.7781 10.3061 11.1345 10.5858 11.4142C10.8655 11.6939 11.2219 11.8844 11.6098 11.9616C11.9978 12.0387 12.3999 11.9991 12.7654 11.8478C13.1308 11.6964 13.4432 11.44 13.6629 11.1111C13.8827 10.7822 14 10.3956 14 10C14 9.46957 13.7893 8.96086 13.4142 8.58579C13.0391 8.21071 12.5304 8 12 8ZM12 10.8571C11.8305 10.8571 11.6648 10.8069 11.5238 10.7127C11.3828 10.6185 11.273 10.4846 11.2081 10.328C11.1432 10.1714 11.1263 9.99905 11.1593 9.83278C11.1924 9.66651 11.274 9.51378 11.3939 9.39391C11.5138 9.27403 11.6665 9.1924 11.8328 9.15933C11.999 9.12625 12.1714 9.14323 12.328 9.2081C12.4846 9.27298 12.6185 9.38284 12.7127 9.5238C12.8069 9.66475 12.8571 9.83047 12.8571 10C12.8571 10.2273 12.7668 10.4453 12.6061 10.6061C12.4453 10.7668 12.2273 10.8571 12 10.8571Z" fill="#1A1A1A"/>
<path d="M12 10.8571C11.8305 10.8571 11.6648 10.8069 11.5238 10.7127C11.3828 10.6185 11.273 10.4846 11.2081 10.328C11.1432 10.1714 11.1263 9.99905 11.1593 9.83278C11.1924 9.66651 11.274 9.51378 11.3939 9.39391C11.5138 9.27403 11.6665 9.1924 11.8328 9.15933C11.999 9.12625 12.1714 9.14323 12.328 9.2081C12.4846 9.27298 12.6185 9.38284 12.7127 9.5238C12.8069 9.66475 12.8571 9.83047 12.8571 10C12.8571 10.2273 12.7668 10.4453 12.6061 10.6061C12.4453 10.7668 12.2273 10.8571 12 10.8571Z" fill="#1A1A1A"/>
</svg>
