<svg width="120" height="39" viewBox="0 0 120 39" fill="none" xmlns="http://www.w3.org/2000/svg">
<path fill-rule="evenodd" clip-rule="evenodd" d="M27.6875 5.14597H31.3016L34.9631 14.0023L39.0032 5.14597H42.6273L33.7997 24.4245H30.1471L33.0453 18.2072L27.6875 5.14597Z" fill="#006C43"/>
<path fill-rule="evenodd" clip-rule="evenodd" d="M58.0037 7.99913L55.0583 9.62165C54.5049 9.0414 53.9598 8.63984 53.4191 8.41398C52.8784 8.18974 52.2448 8.07722 51.5186 8.07722C50.1962 8.07722 49.1254 8.47255 48.3096 9.26293C47.4913 10.0536 47.0819 11.0647 47.0819 12.3011C47.0819 13.5009 47.4748 14.4814 48.2638 15.2408C49.0498 16.0011 50.0839 16.381 51.3621 16.381C52.9458 16.381 54.1775 15.8401 55.0583 14.7585L57.8485 16.6714C56.3363 18.6391 54.2027 19.6236 51.4491 19.6236C48.9697 19.6236 47.0278 18.8896 45.6244 17.4181C44.2205 15.9482 43.5195 14.2268 43.5195 12.2547C43.5195 10.8882 43.8604 9.63006 44.5438 8.47959C45.2251 7.33022 46.1771 6.42514 47.3993 5.76843C48.6218 5.11064 49.9883 4.78174 51.5005 4.78174C52.9009 4.78174 54.1564 5.06156 55.2703 5.61849C56.3856 6.17704 57.2956 6.97014 58.0037 7.99913Z" fill="#006C43"/>
<path fill-rule="evenodd" clip-rule="evenodd" d="M60.9141 19.2609V0.176758H63.91C65.6475 0.176758 66.9201 0.289282 67.7234 0.514332C68.8639 0.816657 69.7728 1.37928 70.447 2.19922C71.122 3.02214 71.4583 3.99066 71.4583 5.10669C71.4583 5.83308 71.3059 6.49224 70.9991 7.08441C70.6929 7.67659 70.1941 8.23352 69.5032 8.75249C70.6604 9.29694 71.5073 9.97833 72.0426 10.7964C72.579 11.6128 72.846 12.5791 72.846 13.6952C72.846 14.7678 72.5701 15.7445 72.0145 16.6273C71.461 17.5099 70.7484 18.1688 69.8755 18.6056C69.0017 19.0424 67.7966 19.2609 66.2578 19.2609H60.9141ZM64.543 3.64111V7.66244H65.3349C66.2198 7.66244 66.8759 7.47671 67.3055 7.1047C67.7347 6.73269 67.9497 6.2262 67.9497 5.5863C67.9497 4.98978 67.7453 4.51582 67.338 4.16578C66.9305 3.81546 66.3113 3.64111 65.4782 3.64111H64.543ZM64.543 10.9062V15.7969H65.4516C66.9587 15.7969 67.9743 15.6071 68.4974 15.2258C69.0214 14.8462 69.2832 14.2917 69.2832 13.5662C69.2832 12.7432 68.9772 12.0955 68.3612 11.6202C67.7466 11.144 66.7242 10.9062 65.2957 10.9062H64.543Z" fill="#006C43"/>
<path fill-rule="evenodd" clip-rule="evenodd" d="M77.2032 19.2608H75.3252V5.14584H78.7706V13.4361L85.9875 5.14584H87.6849V19.2608H84.2381V11.1392L77.2032 19.2608Z" fill="#006C43"/>
<path fill-rule="evenodd" clip-rule="evenodd" d="M104.109 19.2609H100.508L96.9808 10.3587L93.3895 19.2609H89.8008L95.813 5.146H98.0926L104.109 19.2609Z" fill="#006C43"/>
<path fill-rule="evenodd" clip-rule="evenodd" d="M119.999 19.2608H116.396L112.869 10.3586L109.278 19.2608H105.688L111.7 5.14584H113.98L119.999 19.2608Z" fill="#006C43"/>
<path fill-rule="evenodd" clip-rule="evenodd" d="M0 19.0842V0H2.99679C4.73427 0 6.00576 0.112525 6.80993 0.337574C7.95146 0.639899 8.85959 1.20252 9.53379 2.02246C10.2085 2.84538 10.5454 3.81391 10.5454 4.92993C10.5454 5.65633 10.3921 6.31548 10.0856 6.90766C9.77883 7.49983 9.27981 8.05676 8.58937 8.57573C9.74688 9.12019 10.5933 9.80157 11.1288 10.6196C11.6644 11.436 11.9308 12.4024 11.9308 13.5184C11.9308 14.5911 11.656 15.5677 11.1023 16.4506C10.5483 17.3331 9.83569 17.992 8.96194 18.4288C8.08819 18.8656 6.88249 19.0842 5.34294 19.0842H0ZM3.62891 3.46436V7.48569H4.42251C5.306 7.48569 5.96341 7.29995 6.39284 6.92794C6.82091 6.55594 7.03617 6.04944 7.03617 5.40954C7.03617 4.81302 6.83256 4.33906 6.42479 3.98902C6.01675 3.6387 5.39698 3.46436 4.56547 3.46436H3.62891ZM3.62891 10.729V15.6196H4.53812C6.04491 15.6196 7.06027 15.4298 7.58446 15.0486C8.10812 14.669 8.37021 14.1145 8.37021 13.3889C8.37021 12.566 8.06317 11.9182 7.448 11.4429C6.8331 10.9668 5.81097 10.729 4.38189 10.729H3.62891Z" fill="#006C43"/>
<path fill-rule="evenodd" clip-rule="evenodd" d="M13.6797 5.146H17.2164V10.4271L22.0868 5.146H26.4052L20.1279 12.0233L26.4824 19.2609H21.7922L17.5887 14.2746L17.2164 14.7203V19.2609H13.6797V5.146Z" fill="#006C43"/>
<path d="M1.032 36H2.568L5.808 31.092C6.12 30.588 6.516 29.772 6.516 29.772H6.54C6.54 29.772 6.456 30.588 6.456 31.092V36H7.992V27.48H6.456L3.24 32.388C2.928 32.892 2.52 33.72 2.52 33.72H2.496C2.496 33.72 2.58 32.904 2.58 32.4V27.48H1.032V36ZM9.78084 36H11.3048V33.528H13.9208V36H15.4448V29.88H13.9208V32.244H11.3048V29.88H9.78084V36ZM18.5096 36H20.0216V31.176H22.0496V29.88H16.4936V31.176H18.5096V36ZM22.5573 32.94C22.5573 34.68 23.8293 36.144 25.8573 36.144C26.7333 36.144 27.6933 35.82 28.3173 35.268L27.7173 34.176C27.2253 34.572 26.5893 34.848 25.9653 34.848C25.0413 34.848 24.2253 34.296 24.1293 33.228H28.3413C28.3653 33.036 28.3893 32.832 28.3893 32.64C28.3893 31.02 27.4293 29.736 25.6773 29.736C23.8413 29.736 22.5573 31.056 22.5573 32.94ZM24.1653 32.184C24.3093 31.404 24.8613 30.888 25.6413 30.888C26.3253 30.888 26.8533 31.368 26.8653 32.184H24.1653ZM29.6558 38.4H31.1798V35.808C31.1798 35.496 31.1438 35.28 31.1438 35.28H31.1678C31.5998 35.832 32.2358 36.144 32.9318 36.144C34.5398 36.144 35.7278 34.884 35.7278 32.94C35.7278 31.044 34.6718 29.736 33.0158 29.736C32.1878 29.736 31.4438 30.108 31.0478 30.768H31.0238C31.0238 30.768 31.0478 30.564 31.0478 30.336V29.88H29.6558V38.4ZM31.1318 32.976C31.1318 31.62 31.8758 31.044 32.6798 31.044C33.5678 31.044 34.1918 31.8 34.1918 32.964C34.1918 34.176 33.4958 34.86 32.6558 34.86C31.6598 34.86 31.1318 33.924 31.1318 32.976ZM37.0269 36H38.5509V33.528H41.1669V36H42.6909V29.88H41.1669V32.244H38.5509V29.88H37.0269V36ZM43.9557 32.94C43.9557 34.68 45.2277 36.144 47.2557 36.144C48.1317 36.144 49.0917 35.82 49.7157 35.268L49.1157 34.176C48.6237 34.572 47.9877 34.848 47.3637 34.848C46.4397 34.848 45.6237 34.296 45.5277 33.228H49.7397C49.7637 33.036 49.7877 32.832 49.7877 32.64C49.7877 31.02 48.8277 29.736 47.0757 29.736C45.2397 29.736 43.9557 31.056 43.9557 32.94ZM45.5637 32.184C45.7077 31.404 46.2597 30.888 47.0397 30.888C47.7237 30.888 48.2517 31.368 48.2637 32.184H45.5637ZM52.4237 36H53.9357V31.176H55.9637V29.88H50.4077V31.176H52.4237V36ZM56.7607 33.24H60.3608V31.908H56.7607V33.24ZM61.7124 36H63.1764L63.3924 32.688C63.4164 32.28 63.3804 31.644 63.3804 31.644H63.4044C63.4044 31.644 63.6084 32.124 63.7764 32.544L64.9764 35.232H66.2364L67.4364 32.532C67.6284 32.1 67.7964 31.644 67.7964 31.644H67.8204C67.8204 31.644 67.7964 32.28 67.8084 32.688L68.0244 36H69.4884L68.9364 29.88H67.2324L65.9124 33.036C65.7804 33.384 65.6124 33.816 65.6124 33.816H65.5884C65.5884 33.816 65.4324 33.372 65.2884 33.036L63.9924 29.88H62.2644L61.7124 36ZM70.4144 34.308C70.4144 35.424 71.3264 36.144 72.4304 36.144C73.2584 36.144 73.9904 35.688 74.3624 35.04H74.3864C74.3864 35.04 74.3504 35.232 74.3504 35.484V36H75.7664V32.172C75.7664 30.624 74.8184 29.736 73.2224 29.736C72.3104 29.736 71.3264 30.084 70.8224 30.492L71.3864 31.584C71.8784 31.248 72.4904 30.996 73.0904 30.996C73.7264 30.996 74.2424 31.272 74.2424 32.076V32.16H73.9784C72.6224 32.16 70.4144 32.472 70.4144 34.308ZM71.9264 34.176C71.9264 33.312 73.2224 33.204 73.9904 33.204H74.2544V33.372C74.2544 34.116 73.7024 34.98 72.8504 34.98C72.2384 34.98 71.9264 34.584 71.9264 34.176ZM77.316 36H78.84V31.176H81.336V29.88H77.316V36ZM81.8285 34.308C81.8285 35.424 82.7405 36.144 83.8445 36.144C84.6725 36.144 85.4045 35.688 85.7765 35.04H85.8005C85.8005 35.04 85.7645 35.232 85.7645 35.484V36H87.1805V32.172C87.1805 30.624 86.2325 29.736 84.6365 29.736C83.7245 29.736 82.7405 30.084 82.2365 30.492L82.8005 31.584C83.2925 31.248 83.9045 30.996 84.5045 30.996C85.1405 30.996 85.6565 31.272 85.6565 32.076V32.16H85.3925C84.0365 32.16 81.8285 32.472 81.8285 34.308ZM83.3405 34.176C83.3405 33.312 84.6365 33.204 85.4045 33.204H85.6685V33.372C85.6685 34.116 85.1165 34.98 84.2645 34.98C83.6525 34.98 83.3405 34.584 83.3405 34.176ZM88.1781 35.244C88.7421 35.772 89.6181 36.144 90.5421 36.144C91.8741 36.144 92.9541 35.496 92.9541 34.224C92.9541 33.468 92.4741 33.024 91.9221 32.82V32.796C92.3541 32.592 92.7621 32.172 92.7621 31.416C92.7621 30.336 91.8141 29.736 90.6141 29.736C89.5941 29.736 88.8621 30.048 88.3581 30.42L88.8501 31.392C89.3901 31.032 89.8701 30.888 90.3261 30.888C90.9381 30.888 91.2381 31.164 91.2381 31.62C91.2381 32.136 90.8301 32.328 90.2901 32.328H89.6661V33.384H90.4101C91.1421 33.384 91.4301 33.672 91.4301 34.14C91.4301 34.656 91.0221 34.968 90.3741 34.968C89.7381 34.968 89.1501 34.584 88.8261 34.272L88.1781 35.244ZM94.2262 36H95.7022L97.9702 32.736C98.1262 32.496 98.3542 32.172 98.4262 32.004H98.4502C98.4382 32.16 98.4142 32.508 98.4142 32.736V36H99.8662V29.88H98.3902L96.1222 33.156C95.9662 33.396 95.7382 33.732 95.6662 33.888H95.6422C95.6542 33.792 95.6782 33.432 95.6782 33.156V29.88H94.2262V36ZM101.504 36H103.028V33.528H105.644V36H107.168V29.88H105.644V32.244H103.028V29.88H101.504V36Z" fill="#006C43"/>
</svg>
