<svg width="32" height="23" viewBox="0 0 32 23" fill="none" xmlns="http://www.w3.org/2000/svg">
<path fill-rule="evenodd" clip-rule="evenodd" d="M17.3359 23V0.210815H21.0178C23.1531 0.210815 24.717 0.345186 25.7043 0.613926C27.1058 0.974945 28.2228 1.6468 29.0514 2.62592C29.8809 3.6086 30.2942 4.76516 30.2942 6.09785C30.2942 6.96526 30.1069 7.75238 29.7299 8.45953C29.3535 9.16667 28.7406 9.83172 27.8914 10.4514C29.3136 11.1016 30.3544 11.9153 31.0123 12.8921C31.6714 13.867 31.9995 15.021 31.9995 16.3537C31.9995 17.6346 31.6605 18.8008 30.9777 19.8551C30.2975 20.909 29.4217 21.6958 28.3489 22.2174C27.2752 22.739 25.7941 23 23.9031 23H17.3359ZM21.7947 4.34778V9.14982H22.768C23.8554 9.14982 24.6616 8.92803 25.1897 8.4838C25.7171 8.03956 25.9813 7.43474 25.9813 6.67061C25.9813 5.95828 25.7301 5.39231 25.2296 4.9743C24.7289 4.55598 23.9679 4.34778 22.944 4.34778H21.7947ZM21.7947 18.863V13.0229H22.7197C24.4753 13.0229 25.7318 13.3069 26.4871 13.8755C27.2441 14.443 27.6201 15.2166 27.6201 16.1992C27.6201 17.0657 27.2984 17.7278 26.6545 18.1811C26.0116 18.6364 24.7635 18.863 22.9114 18.863H21.7947Z" fill="#006C43"/>
<path fill-rule="evenodd" clip-rule="evenodd" d="M0 22.7892V0H3.68287C5.81812 0 7.38071 0.13437 8.36898 0.403111C9.77185 0.764129 10.8879 1.43598 11.7164 2.4151C12.5457 3.39778 12.9596 4.55434 12.9596 5.88703C12.9596 6.75445 12.7713 7.54157 12.3946 8.24871C12.0176 8.95585 11.4043 9.62091 10.5558 10.2406C11.9783 10.8908 13.0185 11.7045 13.6767 12.6813C14.3348 13.6562 14.6623 14.8102 14.6623 16.1429C14.6623 17.4238 14.3245 18.59 13.6441 19.6443C12.9633 20.6982 12.0875 21.485 11.0137 22.0066C9.93989 22.5282 8.45816 22.7892 6.56614 22.7892H0ZM4.45819 4.137V8.93903H5.43348C6.51924 8.93903 7.32716 8.71724 7.8549 8.27301C8.38097 7.82878 8.64551 7.22395 8.64551 6.45982C8.64551 5.7475 8.39528 5.18152 7.89416 4.76352C7.39271 4.34519 6.63104 4.137 5.60917 4.137H4.45819ZM4.45819 18.6522V12.8121H5.38357C7.13982 12.8121 8.39595 13.0961 9.15162 13.6646C9.90763 14.2322 10.285 15.0057 10.285 15.9884C10.285 16.8549 9.96286 17.517 9.31933 17.9703C8.67512 18.4256 7.42731 18.6522 5.57556 18.6522H4.45819Z" fill="#006C43"/>
</svg>
