<svg width="24" height="24" viewBox="0 0 24 24" fill="none" xmlns="http://www.w3.org/2000/svg">
<mask id="mask0" mask-type="alpha" maskUnits="userSpaceOnUse" x="0" y="0" width="24" height="24">
<circle cx="12" cy="12" r="12" fill="#FDD35A"/>
</mask>
<g mask="url(#mask0)">
<path d="M8.23205 11.0365C9.97994 11.0365 11.4171 9.71408 11.4171 8.05159C11.4171 6.42688 9.97994 5.06667 8.23205 5.06667C6.46473 5.06667 5.06641 6.42688 5.06641 8.05159C5.06641 9.71408 6.46473 11.0365 8.23205 11.0365ZM6.69171 17.2622C6.23015 17.8472 6.64678 18.7066 7.39187 18.7066C7.6649 18.7066 7.92289 18.5816 8.09202 18.3672L17.2689 6.73776C17.7305 6.15284 17.3139 5.29337 16.5688 5.29337C16.2957 5.29337 16.0377 5.41843 15.8686 5.63276L6.69171 17.2622ZM8.23205 9.29846C7.51347 9.29846 6.95025 8.75059 6.95025 8.05159C6.95025 7.37148 7.51347 6.80472 8.23205 6.80472C8.95063 6.80472 9.53326 7.37148 9.53326 8.05159C9.53326 8.75059 8.95063 9.29846 8.23205 9.29846ZM12.6018 15.9673C12.6018 17.6109 14.0001 18.9333 15.7674 18.9333C17.5153 18.9333 18.9331 17.6109 18.9331 15.9673C18.9331 14.3426 17.5153 12.9824 15.7674 12.9824C14.0001 12.9824 12.6018 14.3426 12.6018 15.9673ZM14.4856 15.9484C14.4856 15.2683 15.0489 14.7015 15.7674 14.7015C16.486 14.7015 17.0686 15.2683 17.0686 15.9484C17.0686 16.6474 16.486 17.1953 15.7674 17.1953C15.0489 17.1953 14.4856 16.6474 14.4856 15.9484Z" fill="#F78C07"/>
</g>
</svg>
