<svg width="24" height="24" viewBox="0 0 24 24" fill="none" xmlns="http://www.w3.org/2000/svg">
<path fill-rule="evenodd" clip-rule="evenodd" d="M5 5C3.89543 5 3 5.89543 3 7V15C3 16.1046 3.89543 17 5 17H5.06488C5.06489 18.1046 5.96032 19 7.06488 19C8.16943 19 9.06486 18.1046 9.06488 17H15.0649C15.0649 18.1046 15.9603 19 17.0649 19C18.1694 19 19.0649 18.1046 19.0649 17L19.0649 16.999C20.3412 16.9592 21.2607 15.7414 20.9356 14.4951L19.3702 8.4951C19.1404 7.61447 18.3451 7 17.435 7H15C15 5.89543 14.1046 5 13 5H5ZM13 6.5H5C4.72386 6.5 4.5 6.72386 4.5 7V15C4.5 15.2761 4.72386 15.5 5 15.5H13.5V7C13.5 6.72386 13.2761 6.5 13 6.5ZM17.435 8.5H15.2621V12.5H18.8649L17.9188 8.87378C17.8613 8.65362 17.6625 8.5 17.435 8.5ZM19.2562 14H15.2621V15.5H19.0004C19.3278 15.5 19.5668 15.1906 19.4842 14.8738L19.2562 14Z" fill="#1A1A1A"/>
</svg>
